{"title":"Cidade de Deus 2002 1080p x264 - alrmothe","uid":8499520,"size":8579123020,"categoryP":"video","categoryS":"hd___movies","magnet":"?xt=urn:btih:f30cfe5a6b39a247ddd9fbdf2ecbd5316a9b5ea4&amp;dn=Cidade+de+Deus+2002+1080p+x264+-+alrmothe&amp;tr=udp%3A%2F%2Ftracker.openbittorrent.com%3A80&amp;tr=udp%3A%2F%2Fopen.demonii.com%3A1337&amp;tr=udp%3A%2F%2Ftracker.coppersurfer.tk%3A6969&amp;tr=udp%3A%2F%2Fexodus.desync.com%3A6969","seeders":1,"leechers":0,"uploader":".alrmothe","files":24,"time":1369256874,"description":"************************************************\nCidade de Deus 2002 1080p x264 - alrmothe\n************************************************\n\nTitle : Hansel and Gretel Witch Hunters\nYEAR: 2002\nGENRE :  Crime | Drama      \nimdb URL http://www.imdb.com/title/tt0317248/\nOverall bit rate: 8791 kbps\nFormat version: Version 4 / Version 2\nFile size:  7.95 GiB\nDuration:  2h 9mn\nSub:Arabic,English,Russian\n\nsample:Yes\n\n**************************************************\n\nVideo\nFormat: Matroska\nFormat : AVC \nFormat/Info : Advanced Video Codec \nFormat profile : &lt;a class=&quot;__cf_email__&quot; href=&quot;/cdn-cgi/l/email-protection&quot; data-cfemail=&quot;034b6a646b434f372d32&quot;&gt;[email&amp;#160;protected]&lt;/a&gt;&lt;script cf-hash='f9e31' type=&quot;text/javascript&quot;&gt;\n/* &lt;![CDATA[ */!function(){try{var t=&quot;currentScript&quot;in document?document.currentScript:function(){for(var t=document.getElementsByTagName(&quot;script&quot;),e=t.length;e--;)if(t[e].getAttribute(&quot;cf-hash&quot;))return t[e]}();if(t&amp;&amp;t.previousSibling){var e,r,n,i,c=t.previousSibling,a=c.getAttribute(&quot;data-cfemail&quot;);if(a){for(e=&quot;&quot;,r=parseInt(a.substr(0,2),16),n=2;a.length-n;n+=2)i=parseInt(a.substr(n,2),16)^r,e+=String.fromCharCode(i);e=document.createTextNode(e),c.parentNode.replaceChild(e,c)}}}catch(u){}}();/* ]]&gt; */&lt;/script&gt; \nFormat settings, CABAC : Yes \nFormat settings, ReFrames : 4 frames  \nCodec ID : V_MPEG4/ISO/AVC  \nBit rate : 8150 kbps \nWidth : 1920 pixels \nHeight : 1036 pixels \nDisplay aspect ratio : 1:85:1 \nFrame rate : 23.976 fps \nColor space : YUV \nChroma subsampling : 4:2:0 \nBit depth : 8 bits \nScan type : Progressive \nBits/(Pixel*Frame) : 0.171 \nStream size: 7.21 GiB \n\n\nAudio \nFormat: Ac3\nBit rate :640 Kbps\nChannel(s) : 6 channels\nChannel positions:Front: L C R, Side: L R, LFE\nSampling rate: 48.0 KHz\nBit depth: 16 bits\nCompression mode: Lossy\nStream size: 448 GiB\nLanguage : Portuguese\n\n**************************************************\n\nScreenshots &lt;a href=&quot;\nhttp://img849.imageshack.us/img849/1706/vlcsnap2013052218h21m13.png&quot; rel=&quot;nofollow&quot; target=&quot;_NEW&quot;&gt;\nhttp://img849.imageshack.us/img849/1706/vlcsnap2013052218h21m13.png&lt;/a&gt; &lt;a href=&quot;\nhttp://img692.imageshack.us/img692/1336/vlcsnap2013052218h22m53.png&quot; rel=&quot;nofollow&quot; target=&quot;_NEW&quot;&gt;\nhttp://img692.imageshack.us/img692/1336/vlcsnap2013052218h22m53.png&lt;/a&gt; &lt;a href=&quot;\nhttp://img842.imageshack.us/img842/8969/vlcsnap2013052218h24m19.png&quot; rel=&quot;nofollow&quot; target=&quot;_NEW&quot;&gt;\nhttp://img842.imageshack.us/img842/8969/vlcsnap2013052218h24m19.png&lt;/a&gt; &lt;a href=&quot;\nhttp://img716.imageshack.us/img716/9700/vlcsnap2013052218h24m35.png&quot; rel=&quot;nofollow&quot; target=&quot;_NEW&quot;&gt;\nhttp://img716.imageshack.us/img716/9700/vlcsnap2013052218h24m35.png&lt;/a&gt; &lt;a href=&quot;\nhttp://img203.imageshack.us/img203/3210/vlcsnap2013052218h26m03.png&quot; rel=&quot;nofollow&quot; target=&quot;_NEW&quot;&gt;\nhttp://img203.imageshack.us/img203/3210/vlcsnap2013052218h26m03.png&lt;/a&gt; &lt;a href=&quot;\nhttp://img809.imageshack.us/img809/81/vlcsnap2013052218h27m41.png&quot; rel=&quot;nofollow&quot; target=&quot;_NEW&quot;&gt;\nhttp://img809.imageshack.us/img809/81/vlcsnap2013052218h27m41.png&lt;/a&gt; &lt;a href=&quot;\nhttp://img28.imageshack.us/img28/9526/vlcsnap2013052218h28m38.png&quot; rel=&quot;nofollow&quot; target=&quot;_NEW&quot;&gt;\nhttp://img28.imageshack.us/img28/9526/vlcsnap2013052218h28m38.png&lt;/a&gt; &lt;a href=&quot;\nhttp://img801.imageshack.us/img801/7717/vlcsnap2013052218h35m52.png&quot; rel=&quot;nofollow&quot; target=&quot;_NEW&quot;&gt;\nhttp://img801.imageshack.us/img801/7717/vlcsnap2013052218h35m52.png&lt;/a&gt; &lt;a href=&quot;\nhttp://img585.imageshack.us/img585/29/vlcsnap2013052218h38m28.png&quot; rel=&quot;nofollow&quot; target=&quot;_NEW&quot;&gt;\nhttp://img585.imageshack.us/img585/29/vlcsnap2013052218h38m28.png&lt;/a&gt; &lt;a href=&quot;\nhttp://img209.imageshack.us/img209/2615/vlcsnap2013052218h41m08.png&quot; rel=&quot;nofollow&quot; target=&quot;_NEW&quot;&gt;\nhttp://img209.imageshack.us/img209/2615/vlcsnap2013052218h41m08.png&lt;/a&gt;\n","torrent":{"xt":"urn:btih:f30cfe5a6b39a247ddd9fbdf2ecbd5316a9b5ea4","amp;dn":"Cidade+de+Deus+2002+1080p+x264+-+alrmothe","amp;tr":["udp%3A%2F%2Ftracker.openbittorrent.com%3A80","udp%3A%2F%2Fopen.demonii.com%3A1337","udp%3A%2F%2Ftracker.coppersurfer.tk%3A6969","udp%3A%2F%2Fexodus.desync.com%3A6969"],"infoHash":"f30cfe5a6b39a247ddd9fbdf2ecbd5316a9b5ea4","infoHashBuffer":{"type":"Buffer","data":[243,12,254,90,107,57,162,71,221,217,251,223,46,203,213,49,106,155,94,164]},"announce":[],"urlList":[]}}